<svg width="38" height="25" viewBox="0 0 38 25" fill="none" xmlns="http://www.w3.org/2000/svg">
<path d="M37 23.0273C37 23.7846 36.3666 24.4486 35.5358 24.5H1.96416C1.1345 24.4487 0.5 23.7856 0.5 23.0208V1.97266C0.5 1.18664 1.17463 0.505732 2.04637 0.5H35.4536C36.3254 0.505732 37 1.18664 37 1.97266V23.0273Z" fill="#FEFEFE" stroke="#FEFEFE"/>
<path d="M16.6277 14.9935V14.4935H16.1277H0.5V10.4935H16.1277H16.6277V9.99349V0.5H20.8451V9.99349V10.4935H21.3451H37V14.4935H21.3451H20.8451V14.9935V24.5H16.6277V14.9935Z" fill="#C8102E" stroke="#C8102E"/>
<path d="M36.6434 1.03778L23.5842 7.29826V0.5H35.4647C35.9425 0.508277 36.3638 0.718897 36.6434 1.03778Z" fill="#012169" stroke="#012169"/>
<path d="M35.5355 24.5H23.5842V17.7017L36.642 23.9615C36.3757 24.2652 35.9832 24.4717 35.5355 24.5Z" fill="#012169" stroke="#012169"/>
<path d="M0.850854 23.9519L13.8885 17.7017V24.5H1.9644C1.51212 24.4714 1.11559 24.2617 0.850854 23.9519Z" fill="#012169" stroke="#012169"/>
<path d="M2.03528 0.5H13.8886V7.29826L0.851346 1.04829C1.12987 0.724011 1.55536 0.508328 2.03528 0.5Z" fill="#012169" stroke="#012169"/>
<path d="M0.5 6.6343L2.99904 7.83332H0.5V6.6343Z" fill="#012169" stroke="#012169"/>
<path d="M37.0001 7.83334H34.4739L37.0001 6.62129V7.83334Z" fill="#012169" stroke="#012169"/>
<path d="M37.0001 18.3787L34.4739 17.1666H37.0001V18.3787Z" fill="#012169" stroke="#012169"/>
<path d="M0.5 17.1666H2.99904L0.5 18.3657V17.1666Z" fill="#012169" stroke="#012169"/>
<path d="M27.3388 7.83333H26.7177L37 2.80133V3.20086L27.3388 7.83333Z" fill="#C8102E" stroke="#C8102E"/>
<path d="M0.5 21.814L10.1347 17.1666H10.7824L0.5 22.1987V21.814Z" fill="#C8102E" stroke="#C8102E"/>
<path d="M0.5 4.3166L7.84288 7.83983H7.26035L0.5 4.60049V4.3166Z" fill="#C8102E" stroke="#C8102E"/>
<path d="M37 20.7027L29.6219 17.1602H30.2056L37 20.4189V20.7027Z" fill="#C8102E" stroke="#C8102E"/>
</svg>
