<svg fill="#fff" xmlns="http://www.w3.org/2000/svg" width="1024" height="1024"><path d="M839.629 215.011c0 33.913-27.5 61.41-61.42 61.41-33.91 0-61.409-27.497-61.409-61.41 0-33.921 27.5-61.411 61.409-61.411 33.92 0 61.42 27.49 61.42 61.411z"/><path d="M1021.199 301.059c-2.401-54.409-11.197-91.814-23.803-124.227-13-34.405-33.004-65.208-59.213-90.814-25.61-26.006-56.612-46.212-90.619-59.012C814.96 14.402 777.753 5.603 723.343 3.204 668.528.602 651.125 0 512.097 0 373.072 0 355.67.602 301.058 3.001 246.649 5.4 209.243 14.206 176.839 26.803c-34.413 13.003-65.216 33.007-90.823 59.215-26.005 25.606-46.204 56.612-59.011 90.619-12.604 32.608-21.403 69.811-23.801 124.22C.602 355.672 0 373.074 0 512.104 0 651.127.602 668.53 3.001 723.145 5.4 777.55 14.206 814.957 26.81 847.372c13.002 34.401 33.202 65.208 59.207 90.813 25.607 26.004 56.613 46.213 90.619 59.013 32.608 12.6 69.811 21.402 124.227 23.798 54.605 2.406 72.014 3 211.041 3s156.43-.594 211.04-3c54.41-2.396 91.817-11.197 124.221-23.798a261.923 261.923 0 0 0 149.832-149.827c12.595-32.609 21.402-69.821 23.803-124.227 2.401-54.615 3-72.018 3-211.041 0-139.03-.205-156.431-2.601-211.044zM928.983 719.14c-2.202 50.012-10.604 77.015-17.603 95.017-17.208 44.611-52.613 80.015-97.224 97.224-18.002 7.004-45.204 15.401-95.017 17.597-54.011 2.406-70.211 3-206.838 3s-153.029-.594-206.844-3c-50.01-2.196-77.015-10.593-95.018-17.597-22.199-8.202-42.406-21.207-58.808-38.211-17.003-16.604-30.006-36.608-38.211-58.808-7.001-18.002-15.401-45.21-17.597-95.017-2.407-54.011-3.001-70.216-3.001-206.848 0-136.626.594-153.028 3.001-206.835 2.195-50.01 10.596-77.015 17.597-95.018 8.205-22.207 21.208-42.407 38.414-58.817 16.597-17.003 36.601-30.006 58.808-38.203 18.003-7.001 45.212-15.401 95.018-17.605 54.01-2.399 70.217-3.001 206.836-3.001 136.832 0 153.032.602 206.848 3.001 50.007 2.203 77.015 10.604 95.017 17.605 22.2 8.197 42.409 21.2 58.808 38.203 17.004 16.605 30.003 36.609 38.211 58.817 6.999 18.003 15.401 45.204 17.603 95.018 2.401 54.01 3 70.209 3 206.835 0 136.632-.599 152.632-3 206.643z"/><path d="M512.102 249.044c-145.225 0-263.052 117.82-263.052 263.053 0 145.229 117.828 263.05 263.052 263.05 145.229 0 263.05-117.821 263.05-263.05 0-145.233-117.821-263.053-263.05-263.053zm0 433.688c-94.215 0-170.636-76.416-170.636-170.634 0-94.224 76.421-170.637 170.636-170.637 94.218 0 170.634 76.413 170.634 170.637 0 94.218-76.416 170.634-170.634 170.634z"/></svg>