<svg fill="#fff" xmlns="http://www.w3.org/2000/svg" width="1024" height="1024"><path d="M1023.749 1024.005v-.041h.256V648.412c0-183.725-39.552-325.25-254.336-325.25-103.255 0-172.544 56.661-200.832 110.378h-2.99v-93.226H362.2v683.65h212.054V685.445c0-89.129 16.896-175.318 127.273-175.318 108.759 0 110.382 101.718 110.382 181.037v332.841h211.84zM16.9 340.35h212.31V1024H16.9V340.35zM122.966 0C55.083 0 0 55.082 0 122.966s55.082 124.117 122.966 124.117c67.882 0 122.965-56.234 122.965-124.117C245.889 55.083 190.806 0 122.966 0z"/></svg>