<svg width="32" height="52" viewBox="0 0 32 52" fill="none" xmlns="http://www.w3.org/2000/svg">
<path d="M16 0C7.1634 0 0 7.1634 0 16C0 32 16 51.2 16 51.2C16 51.2 32 32 32 16C32 7.1634 24.8365 0 16 0ZM16 25.8C10.5876 25.8 6.2 21.4124 6.2 16C6.2 10.5876 10.5876 6.2 16 6.2C21.4124 6.2 25.8 10.5876 25.8 16C25.8 21.4124 21.4124 25.8 16 25.8ZM9.8 16C9.8 12.5758 12.5758 9.8 16 9.8C19.4242 9.8 22.2 12.5758 22.2 16C22.2 19.4242 19.4241 22.2 16 22.2C12.5759 22.2 9.8 19.4242 9.8 16Z" fill="#0E0F30"/>
</svg>
