<svg xmlns="http://www.w3.org/2000/svg" width="113" height="90"><g fill="none" fill-rule="evenodd"><path fill="#D7B369" d="M12.415 78.711c-.963-.942-3.53-3.04-4.128-3.93C2.86 66.68 4.414 59.283 9.42 52.33 19.858 37.839 53.484 25.435 56.427 5.308c2.943 20.127 36.57 32.53 47.007 47.022 5.548 7.703 6.93 17.88-.8 27.025v6.475l4.218-4.802c8.543-10.044 7.119-21.1 1.027-29.556C96.456 35.606 59.648 22.032 56.427 0c-3.22 22.032-40.025 35.606-51.45 51.472-5.64 7.822-7.278 16.583-.722 25.805 2.232 3.142 5.14 6.774 8.16 9.12V78.71Z"/><path fill="#D7B369" d="M16.45 77.4h82.688a2.96 2.96 0 0 1 2.953 2.95v5.874c0 1.62-1.33 2.95-2.953 2.95H16.45c-1.62 0-2.95-1.33-2.95-2.95v-5.875c0-1.62 1.326-2.949 2.95-2.949Z"/><path fill="#ffffff" d="M17.1 88.133v-8.325h.999v3.547c.087.113.21.247.369.398.039.042.077.081.116.116l.113.102v-4.163h.998v8.325h-.998v-3.891a3.81 3.81 0 0 1-.37-.345 1.411 1.411 0 0 1-.123-.12 1.478 1.478 0 0 1-.105-.109v4.465H17.1Zm3.593-7.179v-1.146h2.595v8.325h-.995v-4.662a3.105 3.105 0 0 1-.482.355l-.12.071v4.236h-.998v-4.162c.162 0 .327-.032.5-.092.172-.063.348-.144.52-.242.126-.067.235-.14.33-.218.092-.074.176-.158.25-.25v-.351a3.102 3.102 0 0 1-.482.351 3.036 3.036 0 0 1-.573.26c-.19.064-.372.096-.545.096v-1.741c.186-.052.355-.12.506-.196.148-.078.32-.177.513-.303.113-.073.215-.15.303-.228a5.62 5.62 0 0 0 .278-.25v-.792h-.601v.94h-1Zm1.118.5a1.124 1.124 0 0 1-.12.08v1.46l.021-.011c.127-.07.236-.144.33-.218.093-.078.177-.162.251-.25v-1.427c-.148.133-.31.253-.482.366Zm3.783 6.61a.501.501 0 0 1-.169.1.611.611 0 0 1-.25.054.902.902 0 0 1-.323-.064.92.92 0 0 1-.51-.456.84.84 0 0 1-.084-.384c0-.278.073-.51.225-.689a.703.703 0 0 1 .562-.27c.103 0 .197.013.293.041.09.03.164.07.217.127l.05-.992h-.978l-.34-5.723h1.05l.3 5.06.147-3.26c.035-.657.133-1.139.295-1.434.161-.299.358-.45.584-.45h.549v.084a.86.86 0 0 0-.113.25 3.353 3.353 0 0 0-.116.63l-.032.295v.094h-.457a.526.526 0 0 0-.32.12c-.105.081-.165.24-.18.474l-.239 4.863c.107-.12.268-.18.48-.18.224 0 .4.092.52.271.119.18.178.411.178.69a.83.83 0 0 1-.084.383.949.949 0 0 1-.214.28.955.955 0 0 1-.296.176.894.894 0 0 1-.324.064.602.602 0 0 1-.249-.053.561.561 0 0 1-.172-.102Zm-.577-.543a.834.834 0 0 0 .373-.214c.092-.094.14-.253.155-.485v-.102a.52.52 0 0 0-.408-.18.307.307 0 0 0-.221.103.35.35 0 0 0-.1.264v.695c0 .12.033.222.1.303a.298.298 0 0 0 .238.127.59.59 0 0 0 .44-.187c.12.123.267.187.44.187a.291.291 0 0 0 .239-.127.463.463 0 0 0 .102-.303v-.695c0-.11-.028-.201-.081-.264a.246.246 0 0 0-.201-.103.345.345 0 0 0-.196.05.555.555 0 0 0-.152.162v.229c0 .15.025.267.074.347.049.08.155.145.316.193v.187h-1.118v-.187Zm2.964.612v-8.325h.998v2.76c.053-.07.11-.133.17-.19.059-.056.123-.109.19-.165.059-.042.14-.088.238-.137v-2.268h.999v2.187c-.046 0-.113.007-.205.025-.09.018-.186.042-.295.074-.105.031-.214.07-.323.12a1.71 1.71 0 0 0-.598.435.497.497 0 0 0-.137.334c0 .116.046.228.137.334.088.102.19.193.303.27.087.06.186.117.295.166a2.84 2.84 0 0 0 .618.194c.092.017.159.024.205.024v4.162h-1v-4.236a1.052 1.052 0 0 1-.238-.144 1.886 1.886 0 0 1-.359-.345v4.725h-.998Zm6.23-3.891c0 .439-.05.84-.151 1.209a6.742 6.742 0 0 1-.359 1.02c-.088.18-.172.344-.253.499a7.616 7.616 0 0 1-.257.435c-.09.162-.179.31-.26.447a1.57 1.57 0 0 0-.158.366h-.229a1.91 1.91 0 0 0 .007-.415c0-.134-.017-.278-.06-.44a6.462 6.462 0 0 0-.143-.488 9.817 9.817 0 0 0-.183-.5c-.067-.165-.13-.33-.19-.488a7.114 7.114 0 0 1-.32-1.03 5.03 5.03 0 0 1-.13-1.157c0-.436.049-.84.151-1.206.099-.369.218-.71.359-1.019.084-.183.172-.348.253-.503.084-.151.169-.295.256-.435.092-.159.18-.31.257-.448.08-.14.134-.26.161-.365h.23c-.008.056-.012.116-.015.179-.003.06 0 .141.003.24 0 .13.022.277.06.435.043.158.088.324.145.489.059.165.12.334.186.506l.19.482c.127.313.232.658.32 1.03.084.377.13.763.13 1.157Zm-1.59-2.187a5.24 5.24 0 0 1-.133-.47 7.269 7.269 0 0 0-.095-.391c-.035.059-.063.123-.091.186a3.465 3.465 0 0 1-.078.175 1.413 1.413 0 0 0-.053.268 3.96 3.96 0 0 0-.017.348c0 .313.049.66.144 1.051.095.39.201.77.313 1.146.067.25.152.503.246.763a12.02 12.02 0 0 1 .384 1.23c.042.155.07.29.09.402.068-.134.127-.258.18-.377.021-.063.036-.15.05-.263.014-.116.02-.232.02-.352 0-.31-.049-.66-.143-1.051-.1-.387-.205-.77-.317-1.143a8.9 8.9 0 0 0-.243-.766c-.098-.26-.183-.513-.257-.756Zm2.536 6.078v-8.325h2.597v2.187a1.1 1.1 0 0 0-.207.025 3.385 3.385 0 0 0-.62.193 1.58 1.58 0 0 0-.29.165 1.63 1.63 0 0 0-.307.27.514.514 0 0 0-.133.335c0 .116.046.228.133.334a1.754 1.754 0 0 0 .598.437 3.385 3.385 0 0 0 .62.194c.09.016.157.023.206.023v4.162h-2.597Zm1.36-4.38a2.012 2.012 0 0 1-.362-.345v4.517h.601v-4.028a.906.906 0 0 1-.24-.144Zm0-1.54c.06-.042.137-.088.239-.137v-2.06h-.601v2.552a1.978 1.978 0 0 1 .362-.355Zm4.87 2.029c0 .439-.05.84-.148 1.209a7.274 7.274 0 0 1-.363 1.02 9.173 9.173 0 0 1-.506.934c-.095.162-.182.31-.26.447a1.563 1.563 0 0 0-.162.366h-.228a2.5 2.5 0 0 0 .014-.176 1.82 1.82 0 0 0-.004-.239c0-.134-.021-.278-.06-.44a6.07 6.07 0 0 0-.144-.488 9.082 9.082 0 0 0-.186-.5c-.067-.165-.13-.33-.19-.488a7.115 7.115 0 0 1-.32-1.03 5.235 5.235 0 0 1-.126-1.157c0-.436.05-.84.147-1.206.1-.369.222-.71.36-1.019a9.946 9.946 0 0 1 .509-.938c.095-.159.179-.31.26-.448.08-.14.134-.26.158-.365h.232a2.563 2.563 0 0 0-.018.179c-.003.06 0 .141.008.24 0 .13.017.277.059.435.039.158.088.324.145.489.056.165.119.334.186.506.063.169.126.33.187.482.126.313.234.658.319 1.03.088.377.13.763.13 1.157ZM39.8 82.055a5.962 5.962 0 0 1-.137-.47 9.542 9.542 0 0 0-.096-.391c-.031.059-.063.123-.088.186-.028.063-.052.123-.08.175a2.742 2.742 0 0 0-.071.616c0 .313.05.66.145 1.051.098.39.203.77.316 1.146.066.25.148.503.243.763.098.26.183.513.256.756.046.158.088.316.13.474.039.155.071.29.088.402.067-.134.127-.258.18-.377.02-.063.038-.15.052-.263.011-.116.018-.232.018-.352 0-.31-.045-.66-.145-1.051-.094-.387-.2-.77-.312-1.143a8.36 8.36 0 0 0-.246-.766c-.095-.26-.18-.513-.253-.756Zm2.383 2.123h1.649v-.415h-1.65v.415Zm2.497 3.955v-8.325h2.594v2.187c-.046 0-.112.007-.204.025a3.81 3.81 0 0 0-.295.074c-.106.031-.215.07-.324.12-.11.049-.207.1-.295.164-.113.077-.215.17-.303.27a.5.5 0 0 0-.137.335c0 .116.046.228.137.334.088.102.19.193.303.27.088.06.186.117.295.166a2.917 2.917 0 0 0 .619.194c.092.017.158.024.204.024v4.162h-2.594Zm1.357-4.38a1.86 1.86 0 0 1-.36-.345v4.517h.598v-4.028a1.014 1.014 0 0 1-.238-.144Zm0-1.54c.06-.042.14-.088.238-.137v-2.06h-.597v2.552c.053-.07.108-.133.169-.19.06-.056.122-.109.19-.165Zm2.235 5.92v-8.325h.998v4.163c.035-.035.07-.07.11-.102.042-.035.08-.074.123-.116.07-.077.136-.144.197-.208.06-.063.12-.126.172-.19v-3.547h.999v8.325h-1v-4.465l-.232.23-.196.189c-.064.056-.12.105-.173.155v3.891h-.998Zm3.597 0v-8.325h2.594v3.966c-.12 0-.281.018-.481.053a1.533 1.533 0 0 0-.876.47 2.18 2.18 0 0 0-.242.31v3.526h-.995Zm1.595-4.348v-3.77h-.6v4.258c.067-.077.14-.15.214-.225.078-.07.165-.14.268-.2l.118-.063Zm4.63.457c0 .439-.049.84-.147 1.209a7.162 7.162 0 0 1-.361 1.02 9.16 9.16 0 0 1-.507.934l-.26.447a1.602 1.602 0 0 0-.162.366h-.229a2.5 2.5 0 0 0 .014-.176 1.82 1.82 0 0 0-.003-.239 1.9 1.9 0 0 0-.06-.44 6.462 6.462 0 0 0-.144-.488 9.88 9.88 0 0 0-.186-.5c-.067-.165-.13-.33-.19-.488a7.114 7.114 0 0 1-.32-1.03 5.235 5.235 0 0 1-.126-1.157c0-.436.048-.84.148-1.206.101-.369.22-.71.358-1.019.088-.183.172-.348.256-.503.081-.151.17-.295.253-.435.096-.159.18-.31.261-.448.08-.14.133-.26.158-.365h.232a2.124 2.124 0 0 0-.017.179c0 .06 0 .141.006.24 0 .13.022.277.06.435.039.158.088.324.144.489.056.165.12.334.187.506.063.169.127.33.186.482.127.313.236.658.32 1.03.088.377.13.763.13 1.157Zm-1.585-2.187a6.842 6.842 0 0 1-.137-.47 15.907 15.907 0 0 0-.091-.391c-.036.059-.063.123-.091.186-.028.063-.053.123-.081.175a1.854 1.854 0 0 0-.05.268 2.92 2.92 0 0 0-.02.348c0 .313.049.66.147 1.051.095.39.2.77.313 1.146.067.25.148.503.246.763.094.26.179.513.253.756.046.158.092.316.13.474.039.155.07.29.088.402.067-.134.127-.258.183-.377a1.91 1.91 0 0 0 .049-.263c.01-.116.018-.232.018-.352 0-.31-.046-.66-.144-1.051-.096-.387-.2-.77-.313-1.143a8.08 8.08 0 0 0-.246-.766c-.096-.26-.18-.513-.254-.756Zm2.535 6.078v-8.325h2.595v1.874h-.999v-1.667h-.597V82.9c.091.14.197.27.313.39.116.123.253.232.404.33.155.095.313.18.474.25.166.067.299.102.405.102v4.162h-2.595Zm1.596-4.348a2.418 2.418 0 0 1-.327-.271 3.482 3.482 0 0 1-.27-.292v4.704h.597v-4.141Zm1.997 4.348v-8.325h.998v3.547c.088.113.212.247.37.398.042.042.077.081.115.116l.113.102v-4.163h.999v8.325h-1v-3.891a3.814 3.814 0 0 1-.368-.345 1.308 1.308 0 0 1-.123-.12l-.106-.109v4.465h-.998Zm3.593 0v-8.325h.998v4.163c.036-.035.071-.07.113-.102.038-.035.077-.074.12-.116.07-.077.137-.144.196-.208.06-.063.117-.126.172-.19v-3.547h1v8.325h-1v-4.465l-.231.23c-.071.07-.138.132-.197.189-.06.056-.12.105-.173.155v3.891h-.998Zm5.193 0v-3.526a3.367 3.367 0 0 0-.25-.31 1.935 1.935 0 0 0-.33-.273 1.482 1.482 0 0 0-.539-.197 2.915 2.915 0 0 0-.478-.053v-3.966h.996v3.977l.122.063c.187.116.345.26.479.425v-4.465h.998v8.325h-.998Zm1.996-7.179v-1.146h2.595v8.325h-.998v-4.662a2.595 2.595 0 0 1-.478.356l-.12.07v4.236h-.999v-4.162c.159 0 .324-.032.5-.092.172-.063.344-.144.516-.242.127-.067.24-.14.33-.218.096-.074.177-.158.25-.25v-.351a2.964 2.964 0 0 1-.477.351 3.064 3.064 0 0 1-.577.26 1.675 1.675 0 0 1-.542.096v-1.741c.186-.052.356-.12.503-.196.151-.078.32-.177.513-.303.113-.073.215-.15.306-.228.088-.078.18-.159.275-.25v-.792h-.598v.94h-.999Zm1.119.5a1.682 1.682 0 0 1-.12.08v1.46l.017-.011a1.872 1.872 0 0 0 .58-.467v-1.428a3.872 3.872 0 0 1-.477.366Zm7.765 6.68V86.48c-.094.095-.2.18-.32.25a.745.745 0 0 1-.368.102.845.845 0 0 1-.496-.141 1.217 1.217 0 0 1-.345-.362 1.696 1.696 0 0 1-.203-.51 2.687 2.687 0 0 1-.064-.58c0-.358.032-.675.095-.946.063-.27.148-.52.257-.745.112-.225.239-.436.387-.633.144-.2.302-.4.467-.612.028-.039.066-.094.116-.157.05-.068.098-.142.147-.225.053-.085.096-.173.13-.268a.723.723 0 0 0 .032-.471.644.644 0 0 0-.211-.345.252.252 0 0 0-.165-.063c-.038.022-.063.07-.074.148-.01.073-.014.147-.014.217a5.344 5.344 0 0 0 .06.782v.073h-1.058v-.073c.028-.166.066-.334.12-.5.052-.17.118-.317.193-.443.077-.13.168-.236.27-.317a.542.542 0 0 1 .356-.126c.193 0 .34.042.45.13a.823.823 0 0 1 .238.327v-1.185h1v1.185a.725.725 0 0 1 .231-.327c.113-.088.264-.13.457-.13.13 0 .25.042.352.126.105.081.193.187.27.317.078.126.14.274.19.443.049.166.091.334.123.5v.073h-1.058v-.073c.014-.107.028-.225.043-.36a4.29 4.29 0 0 0 .02-.422c0-.07-.007-.144-.017-.217-.01-.078-.036-.126-.075-.148a.253.253 0 0 0-.164.063.637.637 0 0 0-.208.345.78.78 0 0 0-.028.186c0 .099.022.194.057.285.035.095.08.183.13.268.049.083.098.157.15.225.05.063.089.118.113.157.17.212.324.411.472.612.144.197.273.408.382.633.109.225.197.475.26.745.064.27.096.588.096.946 0 .197-.022.387-.067.58-.042.19-.109.359-.204.51-.091.147-.211.27-.349.362a.845.845 0 0 1-.488.14.741.741 0 0 1-.377-.102 1.565 1.565 0 0 1-.312-.249v1.652h-.999Zm1.315-5.777a5.441 5.441 0 0 0-.183-.326 1.504 1.504 0 0 1-.133-.286v4.444c.074.074.144.144.218.204a.378.378 0 0 0 .228.088c.06 0 .11-.05.148-.148a1.51 1.51 0 0 0 .074-.361c.014-.148.02-.303.024-.465.004-.165.004-.313.004-.453a11 11 0 0 0-.18-2.06 1.329 1.329 0 0 0-.084-.327c-.042-.124-.08-.225-.112-.31h-.004Zm-1.765 4.124a.386.386 0 0 0 .225-.088c.078-.06.151-.13.225-.204v-4.444c-.035.096-.08.19-.14.285-.06.095-.12.204-.18.327-.034.085-.07.186-.115.31-.043.12-.07.228-.085.326-.052.292-.095.609-.13.946-.031.342-.05.714-.05 1.115 0 .14 0 .288.004.453.004.162.015.317.025.465.014.144.038.266.077.361.035.099.085.148.144.148Zm4.244 1.652h.999v-8.325h-1v8.325Zm.527-8.972v.085h-.428l-.37-.865V78.3h.429l.369.861Zm.9 0v.085h-.428l-.37-.865V78.3h.429l.369.861Zm.57 8.972v-8.325h2.594v3.966c-.12 0-.281.018-.481.053a1.533 1.533 0 0 0-.876.47 2.18 2.18 0 0 0-.242.31v3.526h-.995Zm1.595-4.348v-3.77h-.6v4.258c.067-.077.14-.15.214-.225.078-.07.165-.14.268-.2l.118-.063Zm1.998 4.348v-4.162c.105 0 .239-.035.404-.102.162-.07.32-.155.475-.25.151-.098.284-.207.404-.33.116-.12.218-.25.313-.39v-2.884h-.598v1.667h-.999v-1.874h2.595v3.955c.032-.035.07-.07.11-.105.041-.035.08-.07.119-.113.074-.077.14-.147.2-.207.06-.063.116-.127.169-.19v-3.34h.998v8.325h-.998v-4.671c-.032.035-.07.07-.11.108-.038.04-.08.078-.119.12l-.2.19c-.06.052-.116.105-.169.154v4.1h-.998v-4.912a3.418 3.418 0 0 1-.598.563v4.348h-.999Zm5.189-7.179v-1.146h2.595v8.325h-1v-4.662a2.122 2.122 0 0 1-.217.183c-.081.06-.165.116-.26.173l-.12.07v4.236h-.998v-4.162c.162 0 .327-.032.5-.092.171-.063.347-.144.52-.242a1.84 1.84 0 0 0 .326-.218c.095-.074.18-.158.25-.25v-.351a2.961 2.961 0 0 1-1.051.611c-.19.064-.373.096-.545.096v-1.741c.186-.052.355-.12.502-.196.151-.078.324-.177.518-.303.112-.073.214-.15.302-.228.09-.078.183-.159.274-.25v-.792h-.598v.94h-.998Zm1.118.5a1.124 1.124 0 0 1-.12.08v1.46l.022-.011c.126-.07.234-.144.326-.218.095-.078.18-.162.25-.25v-1.427a3.619 3.619 0 0 1-.478.366Z"/><path fill="#70BE44" d="M40.008 49.892c.19.431.398.851.629 1.26a22.35 22.35 0 0 0-.63-1.26"/><path fill="#fff" d="M24.01 42.3h-6.636v32.352h4.439V43.827h2.197v30.825h4.438V42.3h-3.706zM52.912 52.213c1.548-.452 3.13-.486 3.147-.487l-.01-.556V42.3h-4.302v9.152c-.898.361-1.724.882-2.242 1.627V42.3h-4.393v32.352h4.393V56.639c.518.74 1.344 1.253 2.242 1.605v16.408h4.302V58.495l.004-.568c-.016 0-1.599-.018-3.146-.454-1.893-.533-2.853-1.412-2.853-2.612 0-1.203.962-2.093 2.858-2.648M66.01 57.607h-.002c-.84.264-1.656.629-2.287 1.134V43.827h2.288v13.78Zm0-15.307h-6.727v32.352h4.438V61.006c.08-1.13 1.156-1.977 3.199-2.506 1.735-.453 3.511-.49 3.528-.49l-.006-.244h.006V42.3H66.01ZM93.839 51.507c-.956.403-1.818.993-2.289 1.852v-9.532h2.289v7.68Zm0 6.684v15.697H91.55V56.361c.471.855 1.333 1.436 2.289 1.83ZM98.277 42.3H87.112v32.352h11.165V57.927h-.024c-.175-.003-1.667-.042-3.128-.454-1.893-.533-2.852-1.412-2.852-2.612 0-1.203.961-2.094 2.857-2.648 1.548-.452 3.131-.486 3.147-.487V42.3ZM38.414 68.383c.386-2.232-3.032-9.76-4.147-13.622-1.116-3.863.987-6.138.987-6.138-.365 3.552 4.367 13.623 4.367 16.07 0 2.446-1.207 3.69-1.207 3.69M40.106 51.7c-.005-.002-.005-.005-.005-.007a13.282 13.282 0 0 1-.595-1.19 14.616 14.616 0 0 1-1.252-5.934c0-.757.057-1.499.17-2.225a19.96 19.96 0 0 0-2.858 3.09 19.658 19.658 0 0 0-3.894 11.775 19.66 19.66 0 0 0 2.493 9.608 14.568 14.568 0 0 1 1.236 5.898c0 .66-.044 1.311-.128 1.947a19.98 19.98 0 0 0 2.721-2.972 19.664 19.664 0 0 0 3.895-11.777 19.66 19.66 0 0 0-1.783-8.213M80.413 68.383c.387-2.232-3.031-9.76-4.147-13.622-1.116-3.863.987-6.138.987-6.138-.365 3.552 4.367 13.623 4.367 16.07 0 2.446-1.207 3.69-1.207 3.69M82.106 51.7c-.005-.002-.005-.005-.005-.007a13.282 13.282 0 0 1-.595-1.19 14.616 14.616 0 0 1-1.252-5.934c0-.757.057-1.499.17-2.225a19.973 19.973 0 0 0-2.858 3.09 19.658 19.658 0 0 0-3.894 11.775 19.66 19.66 0 0 0 2.493 9.608 14.568 14.568 0 0 1 1.236 5.898c0 .66-.044 1.311-.129 1.947a19.95 19.95 0 0 0 2.722-2.972 19.664 19.664 0 0 0 3.894-11.777 19.66 19.66 0 0 0-1.782-8.213"/></g></svg>