<svg width="24" height="20" viewBox="0 0 24 20" fill="none" xmlns="http://www.w3.org/2000/svg">
<path d="M2.13091 5.46778L11.1095 12.0222C11.4717 12.2833 11.9565 12.2956 12.3316 12.0222L21.3091 5.46778V16.6667C21.3091 16.9689 21.1919 17.2456 20.9948 17.45C20.7977 17.6544 20.5334 17.7778 20.2436 17.7778H3.19636C2.90656 17.7778 2.64126 17.6556 2.44522 17.45C2.24917 17.2444 2.13091 16.9689 2.13091 16.6667V5.46778ZM0 3.31444C0 3.32556 0 3.33667 0 3.34778V16.6667C0 17.5867 0.362254 18.4211 0.9376 19.0222C1.51295 19.6233 2.31417 20 3.19636 20H20.2436C21.1258 20 21.926 19.6222 22.5024 19.0222C23.0788 18.4222 23.44 17.5867 23.44 16.6667V3.34667C23.44 3.33556 23.44 3.32444 23.44 3.31333C23.4347 2.40111 23.0746 1.57444 22.5024 0.977778C21.926 0.377778 21.1258 0 20.2436 0H3.19636C2.31417 0 1.51401 0.377778 0.9376 0.977778C0.365451 1.57444 0.00532727 2.40111 0 3.31444ZM21.1962 2.83778L11.72 9.75445L2.24385 2.83778C2.29499 2.73111 2.36318 2.63444 2.44415 2.55C2.64126 2.34444 2.90656 2.22222 3.19636 2.22222H20.2436C20.5334 2.22222 20.7987 2.34444 20.9948 2.55C21.0758 2.63444 21.1439 2.73222 21.1951 2.83778H21.1962Z" fill="#FFBC10"/>
</svg>
