<svg fill="#2196f3" width="47" height="40" viewBox="0 0 47 40" xmlns="http://www.w3.org/2000/svg">
<path d="M4.26182 10.9356L22.219 24.0444C22.9435 24.5667 23.9131 24.5911 24.6631 24.0444L42.6182 10.9356V33.3333C42.6182 33.9378 42.3838 34.4911 41.9896 34.9C41.5953 35.3089 41.0669 35.5556 40.4873 35.5556H6.39273C5.81312 35.5556 5.28252 35.3111 4.89044 34.9C4.49835 34.4889 4.26182 33.9378 4.26182 33.3333V10.9356ZM0 6.62889C0 6.65111 0 6.67333 0 6.69556V33.3333C0 35.1733 0.724509 36.8422 1.8752 38.0444C3.02589 39.2467 4.62833 40 6.39273 40H40.4873C42.2517 40 43.852 39.2444 45.0048 38.0444C46.1576 36.8444 46.88 35.1733 46.88 33.3333V6.69333C46.88 6.67111 46.88 6.64889 46.88 6.62667C46.8693 4.80222 46.1491 3.14889 45.0048 1.95556C43.852 0.755556 42.2517 0 40.4873 0H6.39273C4.62833 0 3.02802 0.755556 1.8752 1.95556C0.730902 3.14889 0.0106545 4.80222 0 6.62889ZM42.3923 5.67556L23.44 19.5089L4.48769 5.67556C4.58998 5.46222 4.72636 5.26889 4.88831 5.1C5.28252 4.68889 5.81312 4.44444 6.39273 4.44444H40.4873C41.0669 4.44444 41.5975 4.68889 41.9896 5.1C42.1515 5.26889 42.2879 5.46444 42.3902 5.67556H42.3923Z" fill="#0E0F30"/>
</svg>
