<svg width="20" height="26" viewBox="0 0 20 26" fill="none" xmlns="http://www.w3.org/2000/svg">
<path d="M18.4 25.6H1.6C0.716 25.6 0 24.8832 0 24V4.8C0 3.916 0.716 3.2 1.6 3.2V22.4C1.6 23.2832 2.3168 24 3.2 24H6.4C7.284 24 8 23.2832 8 22.4V3.2H18.4C19.284 3.2 20 3.9168 20 4.8V24C20 24.8832 19.284 25.6 18.4 25.6ZM14.4 23.2H16V21.6H14.4V23.2ZM14.4 20.8H16V19.2H14.4V20.8ZM14.4 18.4H16V16.8H14.4V18.4ZM14.4 16H16V14.4H14.4V16ZM12 23.2H13.6V21.6H12V23.2ZM12 20.8H13.6V19.2H12V20.8ZM12 18.4H13.6V16.8H12V18.4ZM12 16H13.6V14.4H12V16ZM18.4 5.6C18.4 5.1576 18.0424 4.8 17.6 4.8H10.4C9.9584 4.8 9.6 5.1576 9.6 5.6V8.8C9.6 9.2416 9.9584 9.6 10.4 9.6H17.6C18.0424 9.6 18.4 9.2416 18.4 8.8V5.6ZM18.4 14.4H16.8V16H18.4V14.4ZM18.4 16.8H16.8V18.4H18.4V16.8ZM18.4 19.2H16.8V20.8H18.4V19.2ZM18.4 21.6H16.8V23.2H18.4V21.6ZM6.4 23.2H3.2C2.7584 23.2 2.4 22.8424 2.4 22.4V2.4C2.4 1.9576 2.7584 1.6 3.2 1.6H4.7504V0H5.6V1.6H6.4C6.8416 1.6 7.2 1.9576 7.2 2.4V22.4C7.2 22.8424 6.8416 23.2 6.4 23.2Z" fill="#FFBC10"/>
</svg>
