<svg fill="#2196f3" width="40" height="52" viewBox="0 0 40 52" xmlns="http://www.w3.org/2000/svg">
<path d="M36.8 51.2H3.2C1.432 51.2 0 49.7664 0 48V9.6C0 7.832 1.432 6.4 3.2 6.4V44.8C3.2 46.5664 4.6336 48 6.4 48H12.8C14.568 48 16 46.5664 16 44.8V6.4H36.8C38.568 6.4 40 7.8336 40 9.6V48C40 49.7664 38.568 51.2 36.8 51.2ZM28.8 46.4H32V43.2H28.8V46.4ZM28.8 41.6H32V38.4H28.8V41.6ZM28.8 36.8H32V33.6H28.8V36.8ZM28.8 32H32V28.8H28.8V32ZM24 46.4H27.2V43.2H24V46.4ZM24 41.6H27.2V38.4H24V41.6ZM24 36.8H27.2V33.6H24V36.8ZM24 32H27.2V28.8H24V32ZM36.8 11.2C36.8 10.3152 36.0848 9.6 35.2 9.6H20.8C19.9168 9.6 19.2 10.3152 19.2 11.2V17.6C19.2 18.4832 19.9168 19.2 20.8 19.2H35.2C36.0848 19.2 36.8 18.4832 36.8 17.6V11.2ZM36.8 28.8H33.6V32H36.8V28.8ZM36.8 33.6H33.6V36.8H36.8V33.6ZM36.8 38.4H33.6V41.6H36.8V38.4ZM36.8 43.2H33.6V46.4H36.8V43.2ZM12.8 46.4H6.4C5.5168 46.4 4.8 45.6848 4.8 44.8V4.8C4.8 3.9152 5.5168 3.2 6.4 3.2H9.5008V0H11.2V3.2H12.8C13.6832 3.2 14.4 3.9152 14.4 4.8V44.8C14.4 45.6848 13.6832 46.4 12.8 46.4Z" fill="#0E0F30"/>
</svg>
