<svg width="108" height="108" viewBox="0 0 108 108" fill="none" xmlns="http://www.w3.org/2000/svg">
<g filter="url(#filter0_d_171_32)">
<rect x="4" width="100" height="100" rx="50" fill="#2196F3"/>
</g>
<path d="M76.4859 44.81L71.6984 43.8506C71.4578 43.1584 71.1734 42.4865 70.8594 41.8365L73.5719 37.7676C74.3984 36.5285 74.2344 34.8769 73.1812 33.8253L70.175 30.8189C69.5703 30.2142 68.7719 29.9033 67.9625 29.9033C67.3641 29.9033 66.7594 30.0752 66.2328 30.4283L62.1641 33.1393C61.5109 32.8237 60.8391 32.5424 60.1469 32.3018L59.1875 27.5126C58.8969 26.05 57.6125 25 56.1234 25H51.8734C50.3844 25 49.1016 26.0516 48.8094 27.5126L47.85 32.3018C47.1578 32.5424 46.4859 32.8252 45.8359 33.1393L41.7688 30.4283C41.2391 30.0752 40.6359 29.9033 40.0359 29.9033C39.2281 29.9033 38.4297 30.2142 37.825 30.8189L34.8203 33.8253C33.7672 34.8784 33.6031 36.5285 34.4297 37.7676L37.1406 41.8365C36.825 42.488 36.5437 43.1599 36.3031 43.8522L31.5125 44.81C30.0516 45.1022 29 46.385 29 47.8742V52.1243C29 53.6134 30.0516 54.8978 31.5125 55.1884L36.3016 56.1494C36.5422 56.8416 36.825 57.5135 37.1391 58.1635L34.4297 62.2324C33.6031 63.4715 33.7672 65.1231 34.8203 66.1747L37.8266 69.1811C38.4313 69.7858 39.2297 70.0967 40.0375 70.0967C40.6375 70.0967 41.2422 69.9233 41.7688 69.5717L45.8375 66.8591C46.4891 67.1763 47.1609 67.4576 47.8531 67.6982L48.8109 72.4859C49.1031 73.9484 50.3859 75 51.875 75H56.125C57.6141 75 58.8984 73.9468 59.1891 72.4859L60.15 67.6982C60.8422 67.4576 61.5141 67.1732 62.1641 66.8591L66.2328 69.5717C66.7609 69.9233 67.3656 70.0967 67.9625 70.0967C68.7719 70.0967 69.5703 69.7858 70.175 69.1811L73.1812 66.1747C74.2344 65.1216 74.3984 63.4715 73.5719 62.2324L70.8594 58.1635C71.1766 57.5104 71.4578 56.8385 71.6984 56.1463L76.4859 55.1884C77.9469 54.8994 79 53.6134 79 52.1243V47.8742C79 46.385 77.9469 45.1022 76.4859 44.81ZM71.0844 53.0837C69.9984 53.3009 69.1094 54.0759 68.7469 55.1228C68.5453 55.6994 68.3109 56.2588 68.0484 56.801C67.5625 57.7995 67.6453 58.9776 68.2594 59.898L70.9719 63.9668L67.9656 66.9732L63.8969 64.2606C63.375 63.9122 62.7703 63.7356 62.1641 63.7356C61.7 63.7356 61.2328 63.8387 60.8031 64.0465C60.2594 64.309 59.7016 64.5465 59.1219 64.7481C58.0781 65.1106 57.3031 65.9997 57.0859 67.0857L56.125 71.8765H51.875L50.9172 67.0857C50.7 65.9997 49.925 65.1106 48.8797 64.7481C48.3031 64.5465 47.7422 64.3122 47.2 64.0497C46.7687 63.8387 46.3031 63.7356 45.8375 63.7356C45.2297 63.7356 44.6266 63.9122 44.1047 64.2606L40.0359 66.9732L37.0297 63.9668L39.7406 59.898C40.3547 58.9761 40.4344 57.7979 39.9547 56.8041C39.6922 56.2604 39.4563 55.7025 39.2547 55.1228C38.8922 54.079 38.0016 53.304 36.9172 53.0868L32.1281 52.1258L32.125 47.8742L36.9156 46.9163C38 46.6991 38.8906 45.9241 39.2531 44.8787C39.4547 44.3022 39.6875 43.7412 39.9516 43.199C40.4359 42.2021 40.3547 41.0239 39.7391 40.1036L37.0297 36.0347L40.0344 33.0284L44.1031 35.7394C44.625 36.0878 45.2297 36.2644 45.8359 36.2644C46.3 36.2644 46.7656 36.1613 47.1969 35.9535C47.7391 35.691 48.2984 35.455 48.8766 35.2534C49.9219 34.8909 50.6969 34.0003 50.9141 32.9159L51.8734 28.1267L56.1234 28.1251L57.0813 32.9159C57.2984 34.0003 58.0734 34.8909 59.1203 35.2534C59.6969 35.455 60.2562 35.6878 60.7984 35.9519C61.2312 36.1613 61.6953 36.2644 62.1625 36.2644C62.7703 36.2644 63.3734 36.0878 63.8953 35.7394L67.9641 33.0284L70.9703 36.0347L68.2578 40.1036C67.6437 41.0255 67.5656 42.2021 68.0438 43.1974C68.3063 43.7396 68.5437 44.299 68.7453 44.8772C69.1078 45.9225 69.9969 46.6976 71.0828 46.9147L75.8703 47.8742L75.875 52.1243L71.0844 53.0837ZM54 39.0614C47.9609 39.0614 43.0625 43.96 43.0625 49.9992C43.0625 56.04 47.9609 60.9371 54 60.9371C60.0391 60.9371 64.9375 56.0385 64.9375 49.9992C64.9375 43.96 60.0391 39.0614 54 39.0614ZM54 59.5714C48.7156 59.5714 44.4297 55.2838 44.4297 50.0008C44.4297 44.7162 48.7156 40.4302 54 40.4302C59.2828 40.4302 63.5703 44.7162 63.5703 50.0008C63.5703 55.2838 59.2828 59.5714 54 59.5714ZM54 43.749C50.5469 43.749 47.75 46.546 47.75 49.9992C47.75 53.4509 50.5469 56.2494 54 56.2494C57.4516 56.2494 60.25 53.4509 60.25 49.9992C60.25 46.5475 57.4516 43.749 54 43.749ZM54 54.6884C51.4125 54.6884 49.3125 52.5884 49.3125 50.0008C49.3125 47.4132 51.4125 45.3131 54 45.3131C56.5875 45.3131 58.6875 47.4132 58.6875 50.0008C58.6875 52.5884 56.5875 54.6884 54 54.6884Z" fill="white"/>
<defs>
<filter id="filter0_d_171_32" x="0" y="0" width="108" height="108" filterUnits="userSpaceOnUse" color-interpolation-filters="sRGB">
<feFlood flood-opacity="0" result="BackgroundImageFix"/>
<feColorMatrix in="SourceAlpha" type="matrix" values="0 0 0 0 0 0 0 0 0 0 0 0 0 0 0 0 0 0 127 0" result="hardAlpha"/>
<feOffset dy="4"/>
<feGaussianBlur stdDeviation="2"/>
<feColorMatrix type="matrix" values="0 0 0 0 0 0 0 0 0 0 0 0 0 0 0 0 0 0 0.15 0"/>
<feBlend mode="normal" in2="BackgroundImageFix" result="effect1_dropShadow_171_32"/>
<feBlend mode="normal" in="SourceGraphic" in2="effect1_dropShadow_171_32" result="shape"/>
</filter>
</defs>
</svg>
