<svg fill="#fff" xmlns="http://www.w3.org/2000/svg" width="1024" height="1024"><path d="M1024 194.496c-38.083 16.704-78.659 27.776-120.96 33.152 43.52-25.984 76.739-66.816 92.355-116.032-40.576 24.192-85.381 41.28-133.125 50.816C823.742 121.408 768.83 96 708.926 96c-116.224 0-209.789 94.336-209.789 209.984 0 16.64 1.408 32.64 4.864 47.872-174.528-8.512-328.96-92.16-432.704-219.584-18.112 31.424-28.736 67.392-28.736 106.112 0 72.704 37.44 137.152 93.248 174.464-33.728-.64-66.816-10.432-94.848-25.856v2.304c0 102.016 72.768 186.752 168.192 206.269-17.088 4.675-35.712 6.912-55.04 6.912-13.44 0-27.008-.768-39.744-3.584 27.2 83.139 104.384 144.256 196.16 146.243-71.424 55.869-162.112 89.533-260.288 89.533-17.216 0-33.728-.768-50.24-2.877C92.993 893.757 203.201 928 322.049 928c386.304 0 597.504-320 597.504-597.376 0-9.28-.323-18.24-.768-27.136 41.661-29.568 76.672-66.496 105.216-108.992z"/></svg>