<svg width="52" height="77" viewBox="0 0 52 77" fill="none" xmlns="http://www.w3.org/2000/svg">
<path d="M6.39983 0C2.864 0 0 2.86395 0 6.40005V22.416C0 24.656 0.928019 26.6896 2.41597 28.144L9.37573 35.104C4.60784 39.4896 1.6 45.792 1.6 52.8C1.6 66.048 12.3516 76.8 25.5992 76.8C38.8451 76.8 49.5984 66.048 49.5984 52.8C49.5984 45.792 46.5905 39.4896 41.8243 35.1024L48.784 28.1424C50.272 26.688 51.2 24.6544 51.2 22.4144L51.1998 6.40005C51.1998 2.8641 48.336 0 44.8 0L6.39983 0ZM25.5992 40C26.1591 40 26.6232 40.3536 26.7831 40.848L29.6949 48H37.1666C37.8386 48 38.3985 48.72 38.3985 49.3759C38.3985 49.776 38.2065 50.1279 37.901 50.3359L31.6132 54.608C31.6132 54.608 33.6292 62.208 33.6947 62.432C33.741 62.544 33.7571 62.672 33.7571 62.7999C33.7571 63.4719 33.2131 63.9999 32.5252 63.9999C32.2228 63.9999 31.9332 63.8895 31.7253 63.7119L25.5992 58.9279L19.4714 63.7119C19.2634 63.8879 18.9754 63.9999 18.6715 63.9999C17.9835 63.9999 17.4396 63.4719 17.4396 62.7999C17.4396 62.672 17.4557 62.5439 17.5037 62.432C17.5677 62.208 19.6156 54.6416 19.6156 54.6416L13.2958 50.3376C12.9918 50.1296 12.7998 49.7777 12.7998 49.3776C12.7998 48.7216 13.3597 48.0017 14.0317 48.0017H21.5034L24.4153 40.8497C24.5752 40.3536 25.0392 40 25.5992 40ZM14.3995 11.2001V22.4001C14.3995 24.1601 12.9596 25.6 11.1997 25.6C9.43978 25.6 7.99983 24.1601 7.99983 22.4001V11.2001C7.99983 9.4401 9.43978 8.0001 11.1997 8.0001C12.9596 8.0001 14.3995 9.43995 14.3995 11.2001ZM28.799 11.2001V25.6C28.799 27.36 27.3591 28.8 25.5992 28.8C23.8393 28.8 22.3993 27.36 22.3993 25.6V11.2001C22.3993 9.4401 23.8393 8.0001 25.5992 8.0001C27.3591 7.99995 28.799 9.43995 28.799 11.2001ZM43.1985 11.2001V22.4001C43.1985 24.1601 41.7586 25.6 39.9987 25.6C38.2388 25.6 36.7988 24.1601 36.7988 22.4001V11.2001C36.7988 9.4401 38.2388 8.0001 39.9987 8.0001C41.7586 8.0001 43.1985 9.43995 43.1985 11.2001Z" fill="#FFBC10"/>
</svg>
